# xmcd
#
# Track frame offsets:
#	150
#	21838
#	39979
#	75956
#	92160
#	130377
#	147859
#	172498
#	193265
#	225443
#
# Disc length: 3412 seconds
#
# Revision: 0
# Processed by: cddbd v1.5.2PL0 Copyright (c) Steve Scherf et al.
# Submitted via: EZCDAudioConverter 3.1.4.1
#
DISCID=810d520a
DTITLE=Roy Buchhanan - Lonely Nights
DYEAR=2015
DGENRE=Blues
TTITLE0=I'm a Ram
TTITLE1=Honkey Tonk
TTITLE2=Since You've Been Gone
TTITLE3=Further On Up the Road
TTITLE4=Delta Woman
TTITLE5=Slow Down
TTITLE6=I'm Evil
TTITLE7=LonelyNights
TTITLE8=Green Onions
TTITLE9=The Messiah Will Come Again
EXTD=
EXTT0=
EXTT1=
EXTT2=
EXTT3=
EXTT4=
EXTT5=
EXTT6=
EXTT7=
EXTT8=
EXTT9=
PLAYORDER=
